<svg xmlns="http://www.w3.org/2000/svg" viewBox="0 0 756 330" width="756" height="330" role="img" aria-label="Public matched benchmark ROC-AUC. GPT-4o 0.946, Claude 3.5 Sonnet 0.842, o1-pro 0.877, paraphrased GPT-4o 0.837, humanized o1-pro 0.762.">
<style>text{font-family:ui-sans-serif,system-ui,"Segoe UI",sans-serif}.n{font-family:ui-monospace,Menlo,Consolas,monospace}</style>
<line x1="200.0" y1="30" x2="200.0" y2="306" stroke="#2a313b" stroke-width="1"/>
<text x="200.0" y="22" fill="#8b9bb0" font-size="12" text-anchor="middle" class="n">0.5</text>
<line x1="303.2" y1="30" x2="303.2" y2="306" stroke="#2a313b" stroke-width="1"/>
<text x="303.2" y="22" fill="#8b9bb0" font-size="12" text-anchor="middle" class="n">0.6</text>
<line x1="406.4" y1="30" x2="406.4" y2="306" stroke="#2a313b" stroke-width="1"/>
<text x="406.4" y="22" fill="#8b9bb0" font-size="12" text-anchor="middle" class="n">0.7</text>
<line x1="509.6" y1="30" x2="509.6" y2="306" stroke="#2a313b" stroke-width="1"/>
<text x="509.6" y="22" fill="#8b9bb0" font-size="12" text-anchor="middle" class="n">0.8</text>
<line x1="612.8" y1="30" x2="612.8" y2="306" stroke="#2a313b" stroke-width="1"/>
<text x="612.8" y="22" fill="#8b9bb0" font-size="12" text-anchor="middle" class="n">0.9</text>
<line x1="716.0" y1="30" x2="716.0" y2="306" stroke="#2a313b" stroke-width="1"/>
<text x="716.0" y="22" fill="#8b9bb0" font-size="12" text-anchor="middle" class="n">1.0</text>
<text x="186" y="50" fill="#F2EDE4" font-size="15" text-anchor="end">GPT-4o</text>
<rect x="200" y="36" width="460.3" height="18" rx="3" fill="#3d4753"/>
<text x="668.3" y="50" fill="#F2EDE4" font-size="14" class="n">0.946</text>
<text x="186" y="102" fill="#F2EDE4" font-size="15" text-anchor="end">Claude 3.5 Sonnet</text>
<rect x="200" y="88" width="352.9" height="18" rx="3" fill="#3d4753"/>
<text x="560.9" y="102" fill="#F2EDE4" font-size="14" class="n">0.842</text>
<text x="186" y="154" fill="#F2EDE4" font-size="15" text-anchor="end">o1-pro</text>
<rect x="200" y="140" width="389.1" height="18" rx="3" fill="#3d4753"/>
<text x="597.1" y="154" fill="#F2EDE4" font-size="14" class="n">0.877</text>
<text x="186" y="206" fill="#F2EDE4" font-size="15" text-anchor="end">paraphrased GPT-4o</text>
<rect x="200" y="192" width="347.8" height="18" rx="3" fill="#E2542B"/>
<text x="555.8" y="206" fill="#F2EDE4" font-size="14" class="n">0.837</text>
<text x="186" y="258" fill="#F2EDE4" font-size="15" text-anchor="end">humanized o1-pro</text>
<rect x="200" y="244" width="270.4" height="18" rx="3" fill="#E2542B"/>
<text x="478.4" y="258" fill="#F2EDE4" font-size="14" class="n">0.762</text>
<text x="200" y="326" fill="#8b9bb0" font-size="12">AUC ranks scores; it is not guard-threshold recall or proof of authorship.</text>
</svg>
